<svg width="278" height="54" viewBox="0 0 278 54" fill="none" xmlns="http://www.w3.org/2000/svg">
<g filter="url(#filter0_d_459_575)">
<rect width="267.985" height="44.1791" transform="translate(5 4.29883)" fill="white"/>
<path d="M24.3022 20.4275H22.7803V22.3884H19.9559V20.4275H14.5414V18.5397L19.1364 12.1446H22.1364L17.9657 18.1299H20.0437V16.3885H22.7803V18.1299H24.3022V20.4275ZM29.1197 22.5933C28.2416 22.5933 27.4611 22.3835 26.7782 21.964C26.0953 21.5445 25.5587 20.9348 25.1685 20.1348C24.788 19.325 24.5978 18.369 24.5978 17.2665C24.5978 16.1641 24.788 15.2129 25.1685 14.4129C25.5587 13.6032 26.0953 12.9885 26.7782 12.569C27.4611 12.1495 28.2416 11.9398 29.1197 11.9398C29.988 11.9398 30.7636 12.1495 31.4465 12.569C32.1294 12.9885 32.6611 13.6032 33.0416 14.4129C33.4318 15.2129 33.6269 16.1641 33.6269 17.2665C33.6269 18.369 33.4318 19.325 33.0416 20.1348C32.6611 20.9348 32.1294 21.5445 31.4465 21.964C30.7636 22.3835 29.988 22.5933 29.1197 22.5933ZM29.1197 20.2226C29.6075 20.2226 29.9928 19.9885 30.2758 19.5202C30.5684 19.0421 30.7148 18.2909 30.7148 17.2665C30.7148 16.2422 30.5684 15.4958 30.2758 15.0275C29.9928 14.5495 29.6075 14.3105 29.1197 14.3105C28.6221 14.3105 28.227 14.5495 27.9343 15.0275C27.6514 15.4958 27.5099 16.2422 27.5099 17.2665C27.5099 18.2909 27.6514 19.0421 27.9343 19.5202C28.227 19.9885 28.6221 20.2226 29.1197 20.2226ZM36.767 17.6909C35.9962 17.6909 35.367 17.4373 34.8792 16.93C34.3914 16.4226 34.1475 15.73 34.1475 14.8519C34.1475 14.2763 34.2597 13.7739 34.4841 13.3446C34.7084 12.9154 35.0158 12.5885 35.406 12.3641C35.806 12.13 36.2596 12.0129 36.767 12.0129C37.5474 12.0129 38.1816 12.2715 38.6694 12.7885C39.1572 13.2958 39.4011 13.9836 39.4011 14.8519C39.4011 15.73 39.1572 16.4226 38.6694 16.93C38.1816 17.4373 37.5474 17.6909 36.767 17.6909ZM42.8254 12.1446H44.9327L37.9377 22.3884H35.8304L42.8254 12.1446ZM36.767 16.3007C37.0304 16.3007 37.2401 16.1836 37.3962 15.9495C37.5523 15.7153 37.6304 15.3495 37.6304 14.8519C37.6304 14.3544 37.5523 13.9885 37.3962 13.7544C37.2401 13.5202 37.0304 13.4032 36.767 13.4032C36.5133 13.4032 36.3035 13.5251 36.1377 13.769C35.9816 14.0032 35.9035 14.3641 35.9035 14.8519C35.9035 15.3397 35.9816 15.7056 36.1377 15.9495C36.3035 16.1836 36.5133 16.3007 36.767 16.3007ZM43.9961 22.5201C43.2157 22.5201 42.5815 22.2665 42.0937 21.7592C41.6157 21.2519 41.3767 20.5592 41.3767 19.6811C41.3767 18.8129 41.6206 18.1251 42.1084 17.6177C42.5962 17.1007 43.2254 16.8421 43.9961 16.8421C44.7766 16.8421 45.4108 17.1007 45.8986 17.6177C46.3864 18.1251 46.6303 18.8129 46.6303 19.6811C46.6303 20.5592 46.3864 21.2519 45.8986 21.7592C45.4108 22.2665 44.7766 22.5201 43.9961 22.5201ZM43.9961 21.1299C44.2596 21.1299 44.4693 21.0128 44.6254 20.7787C44.7815 20.5445 44.8595 20.1787 44.8595 19.6811C44.8595 19.1836 44.7815 18.8177 44.6254 18.5836C44.4693 18.3494 44.2596 18.2324 43.9961 18.2324C43.7327 18.2324 43.523 18.3494 43.3669 18.5836C43.2108 18.8177 43.1327 19.1836 43.1327 19.6811C43.1327 20.1787 43.2108 20.5445 43.3669 20.7787C43.523 21.0128 43.7327 21.1299 43.9961 21.1299ZM96.889 38.1494V40.3884H88.6647V30.1446H96.6987V32.3836H91.5329V34.1104H96.0841V36.2763H91.5329V38.1494H96.889ZM107.95 30.1446V40.3884H105.565L101.043 34.93V40.3884H98.2042V30.1446H100.59L105.111 35.6031V30.1446H107.95ZM109.702 30.1446H114.545C115.667 30.1446 116.662 30.3544 117.531 30.7739C118.399 31.1934 119.072 31.7885 119.55 32.5592C120.028 33.33 120.267 34.2324 120.267 35.2665C120.267 36.3007 120.028 37.2031 119.55 37.9738C119.072 38.7445 118.399 39.3397 117.531 39.7592C116.662 40.1787 115.667 40.3884 114.545 40.3884H109.702V30.1446ZM114.428 38.0763C115.306 38.0763 116.009 37.8275 116.536 37.3299C117.072 36.8324 117.341 36.1446 117.341 35.2665C117.341 34.3885 117.072 33.7007 116.536 33.2031C116.009 32.7056 115.306 32.4568 114.428 32.4568H112.599V38.0763H114.428ZM125.099 40.5933C124.27 40.5933 123.465 40.4909 122.684 40.286C121.904 40.0811 121.27 39.8079 120.782 39.4665L121.733 37.3299C122.192 37.6324 122.723 37.8763 123.328 38.0616C123.933 38.247 124.528 38.3397 125.114 38.3397C126.226 38.3397 126.782 38.0616 126.782 37.5055C126.782 37.2129 126.621 36.9982 126.299 36.8616C125.987 36.7153 125.48 36.5641 124.777 36.408C124.006 36.2421 123.362 36.0665 122.845 35.8812C122.328 35.686 121.884 35.3787 121.514 34.9592C121.143 34.5397 120.958 33.9739 120.958 33.2617C120.958 32.6373 121.128 32.0763 121.47 31.5788C121.811 31.0715 122.319 30.6715 122.992 30.3788C123.675 30.0861 124.509 29.9398 125.494 29.9398C126.167 29.9398 126.831 30.0178 127.484 30.1739C128.138 30.3202 128.714 30.5398 129.211 30.8324L128.319 32.9836C127.343 32.4568 126.397 32.1934 125.48 32.1934C124.904 32.1934 124.484 32.2812 124.221 32.4568C123.958 32.6227 123.826 32.8422 123.826 33.1153C123.826 33.3885 123.982 33.5934 124.294 33.73C124.606 33.8665 125.109 34.008 125.801 34.1543C126.582 34.3202 127.226 34.5007 127.733 34.6958C128.25 34.8812 128.694 35.1836 129.065 35.6031C129.445 36.0129 129.636 36.5738 129.636 37.286C129.636 37.9006 129.465 38.4567 129.123 38.9543C128.782 39.4519 128.27 39.8518 127.587 40.1543C126.904 40.447 126.075 40.5933 125.099 40.5933ZM139.374 40.5933C137.852 40.5933 136.667 40.1787 135.818 39.3494C134.979 38.5202 134.56 37.3446 134.56 35.8226V30.1446H137.457V35.7348C137.457 37.3738 138.106 38.1933 139.403 38.1933C140.691 38.1933 141.335 37.3738 141.335 35.7348V30.1446H144.189V35.8226C144.189 37.3446 143.764 38.5202 142.916 39.3494C142.077 40.1787 140.896 40.5933 139.374 40.5933ZM150.542 30.1446C151.469 30.1446 152.274 30.3007 152.956 30.6129C153.639 30.9154 154.166 31.3544 154.537 31.93C154.908 32.4958 155.093 33.1641 155.093 33.9348C155.093 34.7056 154.908 35.3738 154.537 35.9397C154.166 36.5055 153.639 36.9446 152.956 37.2568C152.274 37.5592 151.469 37.7104 150.542 37.7104H148.757V40.3884H145.859V30.1446H150.542ZM150.366 35.4275C150.961 35.4275 151.41 35.3007 151.713 35.047C152.015 34.7836 152.166 34.4129 152.166 33.9348C152.166 33.4568 152.015 33.0861 151.713 32.8227C151.41 32.5592 150.961 32.4275 150.366 32.4275H148.757V35.4275H150.366ZM167.185 38.3982H162.854L162.049 40.3884H159.093L163.615 30.1446H166.468L171.005 40.3884H167.99L167.185 38.3982ZM166.337 36.2616L165.02 32.9836L163.702 36.2616H166.337ZM175.134 40.5933C174.304 40.5933 173.499 40.4909 172.719 40.286C171.938 40.0811 171.304 39.8079 170.817 39.4665L171.768 37.3299C172.226 37.6324 172.758 37.8763 173.363 38.0616C173.968 38.247 174.563 38.3397 175.148 38.3397C176.26 38.3397 176.816 38.0616 176.816 37.5055C176.816 37.2129 176.656 36.9982 176.334 36.8616C176.021 36.7153 175.514 36.5641 174.812 36.408C174.041 36.2421 173.397 36.0665 172.88 35.8812C172.363 35.686 171.919 35.3787 171.548 34.9592C171.178 34.5397 170.992 33.9739 170.992 33.2617C170.992 32.6373 171.163 32.0763 171.504 31.5788C171.846 31.0715 172.353 30.6715 173.026 30.3788C173.709 30.0861 174.543 29.9398 175.529 29.9398C176.202 29.9398 176.865 30.0178 177.519 30.1739C178.173 30.3202 178.748 30.5398 179.246 30.8324L178.353 32.9836C177.377 32.4568 176.431 32.1934 175.514 32.1934C174.938 32.1934 174.519 32.2812 174.256 32.4568C173.992 32.6227 173.86 32.8422 173.86 33.1153C173.86 33.3885 174.017 33.5934 174.329 33.73C174.641 33.8665 175.143 34.008 175.836 34.1543C176.616 34.3202 177.26 34.5007 177.768 34.6958C178.285 34.8812 178.729 35.1836 179.099 35.6031C179.48 36.0129 179.67 36.5738 179.67 37.286C179.67 37.9006 179.499 38.4567 179.158 38.9543C178.816 39.4519 178.304 39.8518 177.621 40.1543C176.938 40.447 176.109 40.5933 175.134 40.5933ZM200.75 30.1446L197.428 40.3884H194.326L192.365 34.1543L190.316 40.3884H187.214L183.892 30.1446H186.877L188.94 36.686L191.106 30.1446H193.77L195.833 36.7446L197.984 30.1446H200.75ZM208.002 38.3982H203.67L202.865 40.3884H199.909L204.431 30.1446H207.285L211.821 40.3884H208.806L208.002 38.3982ZM207.153 36.2616L205.836 32.9836L204.519 36.2616H207.153ZM215.95 40.5933C215.121 40.5933 214.316 40.4909 213.535 40.286C212.755 40.0811 212.121 39.8079 211.633 39.4665L212.584 37.3299C213.043 37.6324 213.574 37.8763 214.179 38.0616C214.784 38.247 215.379 38.3397 215.964 38.3397C217.077 38.3397 217.633 38.0616 217.633 37.5055C217.633 37.2129 217.472 36.9982 217.15 36.8616C216.838 36.7153 216.33 36.5641 215.628 36.408C214.857 36.2421 214.213 36.0665 213.696 35.8812C213.179 35.686 212.735 35.3787 212.364 34.9592C211.994 34.5397 211.808 33.9739 211.808 33.2617C211.808 32.6373 211.979 32.0763 212.321 31.5788C212.662 31.0715 213.169 30.6715 213.843 30.3788C214.525 30.0861 215.36 29.9398 216.345 29.9398C217.018 29.9398 217.682 30.0178 218.335 30.1739C218.989 30.3202 219.564 30.5398 220.062 30.8324L219.169 32.9836C218.194 32.4568 217.247 32.1934 216.33 32.1934C215.755 32.1934 215.335 32.2812 215.072 32.4568C214.808 32.6227 214.677 32.8422 214.677 33.1153C214.677 33.3885 214.833 33.5934 215.145 33.73C215.457 33.8665 215.96 34.008 216.652 34.1543C217.433 34.3202 218.077 34.5007 218.584 34.6958C219.101 34.8812 219.545 35.1836 219.916 35.6031C220.296 36.0129 220.486 36.5738 220.486 37.286C220.486 37.9006 220.316 38.4567 219.974 38.9543C219.633 39.4519 219.121 39.8518 218.438 40.1543C217.755 40.447 216.925 40.5933 215.95 40.5933ZM223.57 32.4422H220.423V30.1446H229.599V32.4422H226.467V40.3884H223.57V32.4422ZM238.61 38.1494V40.3884H230.386V30.1446H238.42V32.3836H233.254V34.1104H237.805V36.2763H233.254V38.1494H238.61Z" fill="#8C1725"/>
<path d="M56.8225 22.5933C55.7396 22.5933 54.764 22.364 53.8957 21.9055C53.0372 21.447 52.3591 20.8128 51.8616 20.0031C51.3738 19.1933 51.1299 18.2812 51.1299 17.2665C51.1299 16.2519 51.3738 15.3397 51.8616 14.53C52.3591 13.7202 53.0372 13.0861 53.8957 12.6276C54.764 12.169 55.7396 11.9398 56.8225 11.9398C57.9054 11.9398 58.8761 12.169 59.7347 12.6276C60.6029 13.0861 61.281 13.7202 61.7688 14.53C62.2663 15.3397 62.5151 16.2519 62.5151 17.2665C62.5151 18.2812 62.2663 19.1933 61.7688 20.0031C61.281 20.8128 60.6029 21.447 59.7347 21.9055C58.8761 22.364 57.9054 22.5933 56.8225 22.5933ZM56.8225 20.1933C57.3396 20.1933 57.8078 20.0714 58.2274 19.8275C58.6469 19.5836 58.9786 19.2421 59.2225 18.8031C59.4664 18.3543 59.5883 17.8421 59.5883 17.2665C59.5883 16.6909 59.4664 16.1836 59.2225 15.7446C58.9786 15.2958 58.6469 14.9495 58.2274 14.7056C57.8078 14.4617 57.3396 14.3397 56.8225 14.3397C56.3054 14.3397 55.8371 14.4617 55.4176 14.7056C54.9981 14.9495 54.6664 15.2958 54.4225 15.7446C54.1786 16.1836 54.0567 16.6909 54.0567 17.2665C54.0567 17.8421 54.1786 18.3543 54.4225 18.8031C54.6664 19.2421 54.9981 19.5836 55.4176 19.8275C55.8371 20.0714 56.3054 20.1933 56.8225 20.1933ZM66.6375 14.3836V16.6373H71.1595V18.8763H66.6375V22.3884H63.74V12.1446H71.7741V14.3836H66.6375ZM85.0269 20.1494V22.3884H76.8026V12.1446H84.8366V14.3836H79.6708V16.1104H84.222V18.2763H79.6708V20.1494H85.0269ZM96.5893 12.1446L92.1991 22.3884H89.3455L84.9699 12.1446H88.1016L90.8821 18.8177L93.7211 12.1446H96.5893ZM105.121 20.1494V22.3884H96.8963V12.1446H104.93V14.3836H99.7646V16.1104H104.316V18.2763H99.7646V20.1494H105.121ZM110.914 19.6665H109.333V22.3884H106.436V12.1446H111.119C112.046 12.1446 112.85 12.3007 113.533 12.6129C114.216 12.9154 114.743 13.3544 115.114 13.93C115.484 14.4958 115.67 15.1641 115.67 15.9348C115.67 16.6763 115.494 17.3251 115.143 17.8812C114.802 18.4275 114.309 18.8568 113.665 19.169L115.875 22.3884H112.772L110.914 19.6665ZM112.743 15.9348C112.743 15.4568 112.592 15.0861 112.289 14.8227C111.987 14.5592 111.538 14.4275 110.943 14.4275H109.333V17.4275H110.943C111.538 17.4275 111.987 17.3007 112.289 17.047C112.592 16.7836 112.743 16.4129 112.743 15.9348ZM122.321 18.7153V22.3884H119.423V18.6714L115.516 12.1446H118.574L121.003 16.2129L123.433 12.1446H126.242L122.321 18.7153ZM138.526 17.047C139.111 17.2519 139.57 17.5738 139.901 18.0129C140.233 18.4421 140.399 18.9641 140.399 19.5787C140.399 20.4763 140.038 21.1689 139.316 21.6567C138.594 22.1445 137.55 22.3884 136.184 22.3884H130.653V12.1446H135.892C137.199 12.1446 138.194 12.3885 138.877 12.8763C139.56 13.3544 139.901 14.0032 139.901 14.8227C139.901 15.3105 139.78 15.7495 139.536 16.1397C139.301 16.5202 138.965 16.8226 138.526 17.047ZM133.521 14.2373V16.2129H135.511C136.487 16.2129 136.975 15.8812 136.975 15.2178C136.975 14.5641 136.487 14.2373 135.511 14.2373H133.521ZM135.95 20.2958C136.965 20.2958 137.472 19.9494 137.472 19.2568C137.472 18.5641 136.965 18.2177 135.95 18.2177H133.521V20.2958H135.95ZM148.47 20.3982H144.139L143.334 22.3884H140.378L144.9 12.1446H147.753L152.29 22.3884H149.275L148.47 20.3982ZM147.622 18.2616L146.305 14.9836L144.988 18.2616H147.622ZM152.819 12.1446H155.716V20.0909H160.604V22.3884H152.819V12.1446ZM169.682 20.1494V22.3884H161.458V12.1446H169.492V14.3836H164.326V16.1104H168.877V18.2763H164.326V20.1494H169.682ZM180.129 22.5933C179.046 22.5933 178.071 22.364 177.202 21.9055C176.344 21.447 175.666 20.8128 175.168 20.0031C174.681 19.1933 174.437 18.2812 174.437 17.2665C174.437 16.2519 174.681 15.3397 175.168 14.53C175.666 13.7202 176.344 13.0861 177.202 12.6276C178.071 12.169 179.046 11.9398 180.129 11.9398C181.212 11.9398 182.183 12.169 183.041 12.6276C183.91 13.0861 184.588 13.7202 185.076 14.53C185.573 15.3397 185.822 16.2519 185.822 17.2665C185.822 18.2812 185.573 19.1933 185.076 20.0031C184.588 20.8128 183.91 21.447 183.041 21.9055C182.183 22.364 181.212 22.5933 180.129 22.5933ZM180.129 20.1933C180.646 20.1933 181.115 20.0714 181.534 19.8275C181.954 19.5836 182.285 19.2421 182.529 18.8031C182.773 18.3543 182.895 17.8421 182.895 17.2665C182.895 16.6909 182.773 16.1836 182.529 15.7446C182.285 15.2958 181.954 14.9495 181.534 14.7056C181.115 14.4617 180.646 14.3397 180.129 14.3397C179.612 14.3397 179.144 14.4617 178.724 14.7056C178.305 14.9495 177.973 15.2958 177.729 15.7446C177.485 16.1836 177.363 16.6909 177.363 17.2665C177.363 17.8421 177.485 18.3543 177.729 18.8031C177.973 19.2421 178.305 19.5836 178.724 19.8275C179.144 20.0714 179.612 20.1933 180.129 20.1933ZM189.944 14.3836V16.6373H194.466V18.8763H189.944V22.3884H187.047V12.1446H195.081V14.3836H189.944ZM17.3511 32.4422H14.2048V30.1446H23.3803V32.4422H20.2486V40.3884H17.3511V32.4422ZM32.3914 38.1494V40.3884H24.1671V30.1446H32.2011V32.3836H27.0354V34.1104H31.5865V36.2763H27.0354V38.1494H32.3914ZM40.0891 40.3884L37.9672 37.2129L35.8745 40.3884H32.5672L36.2989 35.208L32.7282 30.1446H35.9916L38.0403 33.1007L40.0598 30.1446H43.1915L39.6208 35.0909L43.4256 40.3884H40.0891ZM45.8553 32.4422H42.709V30.1446H51.8845V32.4422H48.7529V40.3884H45.8553V32.4422ZM52.6714 30.1446H55.5689V40.3884H52.6714V30.1446ZM57.3376 30.1446H60.2352V38.0909H65.1229V40.3884H57.3376V30.1446ZM74.2011 38.1494V40.3884H65.9768V30.1446H74.0109V32.3836H68.8451V34.1104H73.3963V36.2763H68.8451V38.1494H74.2011ZM79.1163 40.5933C78.2871 40.5933 77.4822 40.4909 76.7017 40.286C75.9212 40.0811 75.2871 39.8079 74.7993 39.4665L75.7505 37.3299C76.2091 37.6324 76.7408 37.8763 77.3456 38.0616C77.9505 38.247 78.5456 38.3397 79.131 38.3397C80.2432 38.3397 80.7992 38.0616 80.7992 37.5055C80.7992 37.2129 80.6383 36.9982 80.3163 36.8616C80.0041 36.7153 79.4968 36.5641 78.7944 36.408C78.0237 36.2421 77.3798 36.0665 76.8627 35.8812C76.3456 35.686 75.9017 35.3787 75.531 34.9592C75.1603 34.5397 74.9749 33.9739 74.9749 33.2617C74.9749 32.6373 75.1456 32.0763 75.4871 31.5788C75.8286 31.0715 76.3359 30.6715 77.009 30.3788C77.692 30.0861 78.5261 29.9398 79.5115 29.9398C80.1846 29.9398 80.848 30.0178 81.5017 30.1739C82.1553 30.3202 82.7309 30.5398 83.2285 30.8324L82.3358 32.9836C81.3602 32.4568 80.4139 32.1934 79.4968 32.1934C78.9212 32.1934 78.5017 32.2812 78.2383 32.4568C77.9749 32.6227 77.8432 32.8422 77.8432 33.1153C77.8432 33.3885 77.9993 33.5934 78.3115 33.73C78.6237 33.8665 79.1261 34.008 79.8188 34.1543C80.5992 34.3202 81.2431 34.5007 81.7505 34.6958C82.2675 34.8812 82.7114 35.1836 83.0821 35.6031C83.4626 36.0129 83.6529 36.5738 83.6529 37.286C83.6529 37.9006 83.4821 38.4567 83.1407 38.9543C82.7992 39.4519 82.287 39.8518 81.6041 40.1543C80.9212 40.447 80.0919 40.5933 79.1163 40.5933Z" fill="black"/>
<path d="M241.107 40.5201C240.639 40.5201 240.244 40.364 239.922 40.0518C239.6 39.7397 239.439 39.3445 239.439 38.8665C239.439 38.3787 239.595 37.9836 239.907 37.6811C240.229 37.3787 240.629 37.2275 241.107 37.2275C241.595 37.2275 241.995 37.3787 242.307 37.6811C242.619 37.9836 242.775 38.3787 242.775 38.8665C242.775 39.3445 242.614 39.7397 242.292 40.0518C241.98 40.364 241.585 40.5201 241.107 40.5201Z" fill="black"/>
</g>
<defs>
<filter id="filter0_d_459_575" x="0.766597" y="0.0654254" width="277.157" height="53.3513" filterUnits="userSpaceOnUse" color-interpolation-filters="sRGB">
<feFlood flood-opacity="0" result="BackgroundImageFix"/>
<feColorMatrix in="SourceAlpha" type="matrix" values="0 0 0 0 0 0 0 0 0 0 0 0 0 0 0 0 0 0 127 0" result="hardAlpha"/>
<feMorphology radius="0.352784" operator="dilate" in="SourceAlpha" result="effect1_dropShadow_459_575"/>
<feOffset dx="0.352784" dy="0.352784"/>
<feGaussianBlur stdDeviation="2.1167"/>
<feComposite in2="hardAlpha" operator="out"/>
<feColorMatrix type="matrix" values="0 0 0 0 0 0 0 0 0 0 0 0 0 0 0 0 0 0 0.25 0"/>
<feBlend mode="normal" in2="BackgroundImageFix" result="effect1_dropShadow_459_575"/>
<feBlend mode="normal" in="SourceGraphic" in2="effect1_dropShadow_459_575" result="shape"/>
</filter>
</defs>
</svg>
